<?xml version="1.0" encoding="utf-8"?>
<!-- Generator: Adobe Illustrator 25.4.2, SVG Export Plug-In . SVG Version: 6.00 Build 0)  -->
<svg version="1.1" id="Layer_1" xmlns="http://www.w3.org/2000/svg" xmlns:xlink="http://www.w3.org/1999/xlink" x="0px" y="0px"
	 viewBox="0 0 700 700" style="enable-background:new 0 0 700 700;" xml:space="preserve">
<style type="text/css">
	.st0{fill:#FFFFFF;}
</style>
<g>
	<path class="st0" d="M203.6,588.6c-4.2,0-8.2-1.7-11.2-4.6c-3-3-4.7-7-4.7-11.2c0-0.6,0-1.1,0.1-1.7c0.2-1.5,0.9-2.8,2-3.7
		s2.6-1.4,4-1.2c1.5,0.1,2.8,0.9,3.7,2s1.4,2.6,1.2,4c-0.2,1.4,0.2,2.8,1.2,3.8s2.3,1.6,3.7,1.6h0.9c3.1,0,5.5,2.4,5.5,5.5
		s-2.5,5.5-5.5,5.5H203.6L203.6,588.6z M216.3,583.1c0-3.1,2.5-5.5,5.5-5.5h17.4c3.1,0,5.5,2.4,5.5,5.5s-2.5,5.5-5.5,5.5h-17.4
		C218.8,588.6,216.3,586.2,216.3,583.1z M251.1,583.1c0-3.1,2.5-5.5,5.5-5.5H274c3.1,0,5.5,2.4,5.5,5.5s-2.5,5.5-5.5,5.5h-17.4
		C253.6,588.6,251.1,586.2,251.1,583.1z M291.3,588.6c-3,0-5.5-2.4-5.5-5.5s2.5-5.5,5.5-5.5h17.4c3.1,0,5.5,2.4,5.5,5.5
		s-2.5,5.5-5.5,5.5H291.3L291.3,588.6z M326.1,588.6c-3,0-5.5-2.4-5.5-5.5s2.5-5.5,5.5-5.5l0,0h17.4c3.1,0,5.5,2.4,5.5,5.5
		s-2.5,5.5-5.5,5.5H326.1L326.1,588.6z M360.8,588.6c-3,0-5.4-2.2-5.4-5.3s2.5-5.5,5.5-5.5h11.5c0.9,0,1.8-0.3,2.6-0.8
		c2.5-1.6,5.9-0.9,7.5,1.7c1.6,2.5,0.9,5.9-1.7,7.5c-2.6,1.6-5.5,2.4-8.5,2.4H360.8L360.8,588.6z M384.1,571.4
		c-0.3,0-0.6-0.1-0.9-0.1c-1.4-0.3-2.7-1.1-3.5-2.3c-0.9-1.2-1.2-2.7-0.9-4.1l0,0c1.1-6,2.3-11.7,3.6-17.2c0.3-1.4,1.2-2.7,2.4-3.5
		s2.8-1,4.2-0.7s2.6,1.2,3.4,2.5c0.7,1.3,1,2.8,0.6,4.2c-1.2,5.3-2.4,11-3.5,16.8C389,569.5,386.7,571.4,384.1,571.4L384.1,571.4z
		 M197.8,560.4c-0.5,0-1-0.1-1.4-0.2c-2.9-0.8-4.7-3.8-3.9-6.7l0,0c1.4-5.1,2.8-10.8,4.2-16.7c0.3-1.5,1.2-2.7,2.4-3.5
		c1.3-0.8,2.8-1,4.2-0.7c1.4,0.4,2.6,1.2,3.4,2.5c0.7,1.3,1,2.8,0.6,4.2c-1.4,6-2.8,11.8-4.2,17
		C202.4,558.7,200.3,560.4,197.8,560.4L197.8,560.4z M392.1,537.5c-1.7,0-3.3-0.8-4.4-2.3c-1.1-1.4-1.4-3.1-0.9-4.8
		c1.7-5.8,3.7-11.6,6.2-17.1c1.3-2.6,4.5-3.8,7.2-2.5s3.9,4.5,2.7,7.2c-2.2,5.1-4.1,10.3-5.6,15.6
		C396.7,535.9,394.5,537.5,392.1,537.5L392.1,537.5L392.1,537.5z M205.6,526.5c-1.6,0-3.2-0.7-4.2-2c-1-1.2-1.4-2.9-1.1-4.5
		c1.1-5.9,2.1-11.6,2.9-16.9c0.2-1.5,0.9-2.8,2.1-3.7c1.2-0.8,2.6-1.2,4.1-1c1.4,0.2,2.7,1,3.6,2.2s1.2,2.7,1,4.1
		c-0.8,5.5-1.8,11.4-3,17.4C210.5,524.6,208.2,526.5,205.6,526.5L205.6,526.5z M409.3,508.6c-2.5,0-4.7-1.8-5.3-4.2
		c-0.6-2.5,0.5-5.1,2.8-6.2c5.9-2.8,12.3-4.4,18.8-4.7c3-0.3,5.7,2,5.9,5c0.3,3-2,5.7-5,5.9c-5.1,0.3-10.1,1.5-14.7,3.6
		C411,508.4,410.2,508.6,409.3,508.6L409.3,508.6L409.3,508.6z M483,507.7c-1.7-0.1-3.4-0.1-4.7,0h-0.5c-3-0.3-5.2-2.9-5-5.9
		c0.2-3,2.8-5.3,5.8-5.1c1.5,0.1,3,0.1,4.5,0.1l0,0c3.8,0.1,7.6-0.3,11.3-1c1.4-0.4,2.9-0.1,4.2,0.7c1.2,0.8,2.1,2,2.4,3.5
		c0.2,1.5-0.1,3-0.9,4.2c-0.8,1.2-2.1,2.1-3.6,2.3C492,507.3,487.5,507.7,483,507.7L483,507.7L483,507.7z M460.1,506
		c-5.6-0.6-11.3-1.2-17.1-1.6c-3-0.2-5.3-2.8-5.1-5.8c0.2-3,2.8-5.3,5.8-5.1l0,0c5.9,0.4,11.8,1,17.5,1.6L460.1,506L460.1,506z
		 M510.7,499.1c-2.2,0-4.3-1.4-5.1-3.5c-0.8-2.1-0.2-4.5,1.4-6c3.4-3.4,5.9-7.7,7.1-12.4c0.9-2.9,3.9-4.5,6.8-3.6s4.5,3.9,3.6,6.8
		c-1.8,6.6-5.3,12.5-10.1,17.2C513.4,498.6,512.1,499.1,510.7,499.1L510.7,499.1L510.7,499.1z M210.6,492.1c-0.1,0-0.3,0-0.2,0
		c-3-0.3-5.2-2.9-5-5.9c0.1-1.1,0.1-2.1,0.2-3.2c0.1-1.5,0.1-3.1,0.1-4.7c0-2.7-0.1-5.6-0.4-8.5c-0.3-3,1.9-5.6,4.9-5.9
		c3-0.3,5.6,1.9,5.9,4.9l0,0c0.3,3.3,0.4,6.4,0.4,9.5c0,1.8-0.1,3.6-0.2,5.4c0,1.1-0.1,2.3-0.2,3.4
		C215.8,489.9,213.5,492.1,210.6,492.1L210.6,492.1L210.6,492.1z M522.6,467.3c-0.2,0-0.5-0.1-0.7-0.1c-1.5-0.1-2.8-0.9-3.7-2
		c-0.9-1.1-1.3-2.6-1.1-4c0.4-3.4,0.8-7,1.1-10.6c0.2-2.1,0.4-4.4,0.6-6.6c0.3-3,3-5.2,6-4.9s5.2,3,4.9,6l0,0
		c-0.2,2.2-0.4,4.4-0.6,6.6c-0.4,3.7-0.7,7.3-1.1,10.8C527.7,465.2,525.4,467.3,522.6,467.3L522.6,467.3z M207.6,457.6
		c-2.5,0-4.7-1.7-5.3-4.1c-1.3-5.3-3.1-10.5-5.3-15.5c-1.3-2.7-0.1-6,2.7-7.2c2.7-1.3,6-0.1,7.2,2.7c2.5,5.6,4.5,11.4,6,17.3
		c0.4,1.6,0,3.4-1,4.7C210.9,456.8,209.3,457.6,207.6,457.6L207.6,457.6z M526.6,432.7c-0.4,0-0.7,0-0.9-0.1
		c-1.4-0.3-2.7-1.1-3.5-2.3c-0.9-1.2-1.2-2.7-0.9-4.1c0.7-4,1.6-7.6,2.6-11.1c0.7-2.3,1.5-4.5,2.4-6.7c1.2-2.8,4.4-4.1,7.2-2.9
		s4.1,4.4,2.9,7.2c-0.8,1.8-1.5,3.6-2,5.5c-1,3.3-1.8,6.6-2.4,10C531.5,430.8,529.2,432.7,526.6,432.7L526.6,432.7z M192.9,426.5
		c-1.8,0-3.4-0.8-4.3-2c-3.7-4.9-7.2-9.6-10.4-14.2c-0.9-1.2-1.2-2.7-1-4.1c0.2-1.5,1-2.8,2.2-3.6c1.2-0.8,2.7-1.2,4.1-0.9
		c1.4,0.2,2.7,1.1,3.5,2.3c3.2,4.4,6.6,9.1,10.2,13.8c1.3,1.6,1.5,3.8,0.6,5.7C196.9,425.3,195,426.5,192.9,426.5L192.9,426.5z
		 M541,401.9c-2.2,0-4.2-1.4-5.1-3.3c-0.8-2.1-0.3-4.5,1.3-6c3.5-3.1,7.2-6,11.1-8.4c1.2-0.8,2.4-1.6,3.5-2.4c1.2-0.9,2.7-1.2,4.1-1
		c1.5,0.2,2.8,1,3.6,2.2s1.2,2.7,0.9,4.1c-0.3,1.4-1.1,2.7-2.3,3.5c-1.2,0.9-2.5,1.7-3.8,2.6c-3.3,2.1-6.5,4.5-9.5,7.2
		C543.8,401.4,542.4,401.9,541,401.9L541,401.9z M172.9,398.1c-1.9,0-3.6-1-4.7-2.5c-3.2-5.1-6.3-10.2-9.1-15.1
		c-1.5-2.7-0.5-6,2.1-7.5c1.3-0.7,2.8-0.9,4.2-0.5c1.4,0.4,2.6,1.3,3.3,2.6c2.7,4.7,5.6,9.7,8.8,14.6c1.1,1.7,1.2,3.8,0.2,5.6
		C176.7,397,174.9,398.1,172.9,398.1L172.9,398.1z M564.3,377.7c-0.2,0-0.4,0-0.6,0c-1.5-0.2-2.8-0.9-3.7-2c-0.9-1.1-1.4-2.6-1.2-4
		c0.1-0.6,0.1-1.2,0.1-1.8c0-0.4,0-0.8,0-1.2c-1-3.1-2.8-6-5.1-8.4c-1.9-2.3-1.6-5.7,0.7-7.6c2.2-1.9,5.6-1.7,7.6,0.5
		c4.1,4,6.8,9.2,7.7,14.9c0,0.7,0,1.2,0,1.8c0,1,0,1.9-0.1,2.9C569.4,375.6,567.1,377.7,564.3,377.7L564.3,377.7z M155.8,367.9
		c-2.1,0-4-1.2-5-3.1c-2.6-5.5-5-10.9-7.1-16.3c-1.1-2.8,0.3-5.9,3.1-7s6,0.2,7.1,3l0,0c2,5.1,4.3,10.3,6.8,15.5
		c0.8,1.7,0.7,3.7-0.3,5.3S157.7,367.9,155.8,367.9L155.8,367.9L155.8,367.9z M546.4,349.2c-1.6,0-3.1-0.7-4.1-1.9
		c-4-4.6-7.6-9.5-10.8-14.7c-1.6-2.6-0.8-5.9,1.8-7.5c2.6-1.6,5.9-0.8,7.5,1.8c2.9,4.7,6.2,9.1,9.8,13.3c1.4,1.6,1.7,3.9,0.8,5.8
		C550.5,348,548.5,349.2,546.4,349.2L546.4,349.2z M143.2,335.5c-2.4,0-4.6-1.6-5.3-3.9c-1.6-5.8-3.1-11.6-4.2-17.4
		c-0.3-1.5,0-3,0.8-4.2c0.8-1.3,2-2.1,3.5-2.4s3,0.1,4.2,0.9c1.2,0.8,2.1,2.1,2.3,3.6l0,0c1,5.5,2.4,11,4,16.4
		c0.5,1.6,0.1,3.4-0.9,4.8C146.5,334.7,144.9,335.5,143.2,335.5L143.2,335.5z M528.9,319.5c-2.4,0-4.5-1.5-5.3-4
		c-1.9-5.9-3.1-12.1-3.5-18.3c0-1.5,0.4-2.9,1.4-4c1-1,2.4-1.7,3.8-1.8c1.5,0,2.9,0.4,4,1.4c1,1,1.7,2.4,1.8,3.8
		c0.4,5.4,1.4,10.6,3,15.7c0.5,1.7,0.2,3.5-0.8,4.9C532.3,318.7,530.7,319.5,528.9,319.5L528.9,319.5z M136.6,301.5
		c-2.8,0-5.2-2.2-5.6-4.9l0,0c-0.5-5.9-0.8-11.8-0.8-17.9c0-1.4,0.6-2.8,1.6-3.8c1.1-1.1,2.5-1.6,3.9-1.6c3.1,0,5.5,2.5,5.5,5.5l0,0
		c0,5.6,0.3,11.2,0.8,16.7c0.3,3-1.9,5.7-4.9,6l0,0C137,301.5,136.8,301.5,136.6,301.5L136.6,301.5z M525.8,285.2
		c-1.5,0-2.8-0.7-3.8-1.8s-1.5-2.6-1.4-4l0,0c0.2-4,0.6-8.2,0.9-12.4l0.4-5c0-1.4,0.7-2.8,1.8-3.8c1.1-1,2.5-1.5,4-1.4
		s2.9,0.8,3.8,1.9c0.9,1.2,1.4,2.6,1.2,4.1l-0.4,5c-0.3,4.1-0.7,8.2-0.9,12.2c-0.1,2.9-2.5,5.1-5.4,5.1L525.8,285.2z M136.6,266.8
		c-0.2,0-0.4,0-0.6,0c-1.4-0.1-2.8-0.8-3.7-1.9s-1.3-2.6-1.2-4l0,0c0.4-4.2,0.9-8.6,1.6-12.9c0.3-1.6,0.5-3.1,0.8-4.7
		c0.5-3,3.3-5,6.3-4.5c1.4,0.2,2.7,1,3.5,2.2s1.1,2.7,0.9,4.1c-0.2,1.5-0.5,3-0.7,4.5c-0.6,4-1.1,8.2-1.5,12.2
		C141.8,264.6,139.4,266.8,136.6,266.8L136.6,266.8z M528.2,250.4c-1.5,0-2.9-0.6-3.7-1.6c-1.1-1.1-1.6-2.5-1.6-3.9v-1.2
		c0-5.2-0.3-10.4-0.9-15.5c-0.4-3,1.8-5.8,4.8-6.1c1.4-0.1,2.9,0.3,4,1.2c1.1,0.9,1.8,2.3,2,3.7c0.6,5.5,0.9,11.1,0.9,16.7v1.3
		C533.6,248,531.2,250.4,528.2,250.4L528.2,250.4z M142.4,232.6c-1.7,0-3.3-0.8-4.3-2.1c-1-1.3-1.4-3.1-1-4.7
		c1.5-5.8,3.2-11.6,5-17.1c0.9-2.8,4-4.4,6.9-3.4c2.8,0.9,4.4,4,3.4,6.9c-1.7,5.2-3.3,10.6-4.7,16.2
		C147.1,230.9,144.9,232.6,142.4,232.6L142.4,232.6z M524.2,216c-2.5,0-4.7-1.7-5.3-4.3c-1.3-5.4-2.9-10.7-4.9-15.9
		c-0.6-1.4-0.6-2.9,0-4.3c0.6-1.3,1.8-2.4,3.1-2.9c1.3-0.5,2.9-0.4,4.2,0.2c1.4,0.7,2.4,1.8,2.9,3.2c2.1,5.6,3.9,11.3,5.3,17.2
		c0.4,1.7,0,3.4-1,4.7S525.9,216,524.2,216L524.2,216z M153.4,199.7c-1.8,0-3.6-0.9-4.7-2.5c-1-1.6-1.1-3.5-0.4-5.2
		c2.4-5.4,5-10.8,7.9-16c0.7-1.3,1.9-2.3,3.3-2.7s2.9-0.2,4.2,0.5s2.2,1.9,2.6,3.3s0.2,2.9-0.5,4.2l0,0c-2.6,4.9-5.2,9.9-7.4,15.1
		C157.5,198.4,155.6,199.7,153.4,199.7L153.4,199.7L153.4,199.7z M511.9,183.7c-2,0-3.9-1.2-4.8-3c-2.6-5-5.5-9.7-8.7-14.3
		c-0.8-1.2-1.2-2.7-0.9-4.1c0.3-1.4,1.1-2.7,2.3-3.5c1.2-0.9,2.7-1.2,4.1-0.9s2.7,1.1,3.5,2.3c3.4,5,6.5,10.1,9.3,15.4
		c0.9,1.7,0.9,3.8-0.1,5.4C515.6,182.7,513.8,183.7,511.9,183.7L511.9,183.7z M170.2,169.4c-2,0-3.9-1.1-4.8-3
		c-0.9-1.8-0.8-3.9,0.4-5.6c3.4-4.9,7-9.7,10.9-14.2c1.9-2.3,5.4-2.6,7.7-0.6c2.3,1.9,2.6,5.4,0.6,7.7c-3.7,4.3-7.1,8.7-10.3,13.3
		C173.7,168.5,172,169.4,170.2,169.4L170.2,169.4z M492.2,155.1c-1.5,0-3-0.7-4.1-2c-3.7-4.2-7.6-8.2-11.7-12
		c-2.2-2-2.4-5.5-0.3-7.7c2-2.2,5.5-2.4,7.7-0.3c4.4,4.1,8.6,8.4,12.5,12.9c1.4,1.7,1.8,3.9,0.9,5.9
		C496.3,153.8,494.3,155.1,492.2,155.1L492.2,155.1z M192.8,143.1c-2.2,0-4.3-1.4-5.1-3.5c-0.9-2.1-0.3-4.5,1.3-6
		c4.4-4.1,8.9-8,13.7-11.6c2.4-1.9,5.9-1.4,7.7,1c1.9,2.4,1.4,5.9-1,7.7c-4.5,3.4-8.7,7.1-12.8,10.9
		C195.5,142.6,194.2,143.1,192.8,143.1L192.8,143.1z M466.8,131.6c-1.2,0-2.3-0.4-3.3-1l0,0c-4.4-3.4-9.1-6.5-13.9-9.5
		c-1.2-0.8-2.1-2-2.5-3.4c-0.4-1.4-0.2-2.9,0.6-4.2c0.7-1.3,2-2.2,3.4-2.5c1.5-0.4,3-0.1,4.2,0.7c5.1,3.2,10.1,6.6,14.8,10.1
		c1.9,1.4,2.6,3.9,1.9,6.1C471.2,130.1,469.1,131.6,466.8,131.6L466.8,131.6z M220.3,122.1c-2.4-0.1-4.5-1.7-5.1-3.9
		c-0.7-2.3,0.3-4.8,2.4-6.1l0,0c5.1-3.1,10.3-6,15.7-8.6c1.3-0.7,2.8-0.9,4.2-0.4c1.4,0.5,2.5,1.5,3.2,2.8c0.6,1.3,0.7,2.8,0.2,4.2
		s-1.6,2.5-2.9,3.1c-5.1,2.5-10.1,5.2-14.8,8.1C222.3,121.8,221.3,122.1,220.3,122.1L220.3,122.1L220.3,122.1z M437.3,113.4
		c-0.9,0-1.7-0.2-2.4-0.6c-4.9-2.5-10.2-4.8-15.4-6.9c-1.4-0.5-2.5-1.6-3.1-2.9c-0.6-1.3-0.6-2.9-0.1-4.2s1.6-2.4,2.9-3
		c1.3-0.5,2.8-0.6,4.2,0c5.6,2.2,11.1,4.6,16.3,7.2c2.3,1.2,3.5,3.7,2.9,6.2C442,111.6,439.8,113.4,437.3,113.4L437.3,113.4z
		 M251.4,106.7c-2.6,0-4.8-1.9-5.4-4.5c-0.5-2.6,0.9-5.1,3.4-6.1l0,0c5.5-2.1,11.1-4,16.9-5.7c2.9-0.9,6,0.8,6.8,3.7
		c0.9,2.9-0.8,6-3.7,6.8c-5.5,1.6-10.8,3.4-16,5.4C252.7,106.6,252.1,106.7,251.4,106.7L251.4,106.7z M405,100.7
		c-0.5,0-1.1-0.1-1.5-0.2c-5.3-1.6-10.9-3-16.4-4.2c-1.4-0.3-2.7-1.1-3.5-2.4c-0.8-1.3-1.1-2.8-0.8-4.2c0.3-1.5,1.2-2.7,2.4-3.5
		c1.3-0.8,2.8-1,4.2-0.7l0,0c5.8,1.3,11.6,2.8,17.2,4.5c2.6,0.8,4.2,3.3,3.8,6S407.7,100.7,405,100.7L405,100.7L405,100.7z
		 M284.7,96.9c-2.8,0-5.1-2.1-5.6-4.9c-0.3-2.8,1.6-5.3,4.3-5.9c5.7-1.2,11.6-2.3,17.5-3.1c3-0.5,5.8,1.6,6.2,4.6
		c0.5,3-1.6,5.8-4.6,6.2l0,0c-5.6,0.8-11.3,1.8-16.7,3C285.5,96.9,285.1,96.9,284.7,96.9L284.7,96.9z M371.1,93.3
		c-0.3,0-0.5,0-0.7-0.1c-5.6-0.8-11.3-1.3-16.9-1.7c-1.5,0-3-0.6-4-1.7c-1.1-1.1-1.6-2.6-1.5-4.1s0.8-2.9,2-3.9s2.7-1.4,4.2-1.2l0,0
		c5.9,0.4,11.9,1,17.7,1.8c2.8,0.4,4.9,2.9,4.7,5.8S374,93.3,371.1,93.3L371.1,93.3z M319.1,92c-3,0.2-5.5-2.2-5.7-5.2
		s2.2-5.6,5.2-5.7l0,0c2.7-0.2,5.4-0.4,8.1-0.5c3.2-0.2,6.4-0.3,9.6-0.3h0.1c3-0.1,5.5,2.4,5.5,5.4c0.1,3-2.4,5.5-5.4,5.5
		c-3.1,0-6.1,0.1-9.2,0.3c-2.6,0.1-5.2,0.3-7.8,0.5H319.1L319.1,92z"/>
</g>
</svg>
