<?xml version="1.0" encoding="utf-8"?>
<!-- Generator: Adobe Illustrator 25.4.2, SVG Export Plug-In . SVG Version: 6.00 Build 0)  -->
<svg version="1.1" id="Layer_1" xmlns="http://www.w3.org/2000/svg" xmlns:xlink="http://www.w3.org/1999/xlink" x="0px" y="0px"
	 viewBox="0 0 700 700" style="enable-background:new 0 0 700 700;" xml:space="preserve">
<style type="text/css">
	.st0{fill:#DEB818;}
</style>
<g>
	<path class="st0" d="M311.9,39.2c-2.6,0.6-4.4,2.9-4.4,5.6v316c0,1.1,0.4,2.2,1,3.1l36.9,51.4c1.1,1.5,2.7,2.3,4.6,2.3
		s3.5-0.9,4.6-2.3l36.9-51.4c0.7-0.9,1-2,1-3.1v-316c0-3.1-2.5-5.6-5.6-5.6H313C312.7,39.2,312.3,39.2,311.9,39.2L311.9,39.2z
		 M318.7,50.4h62.6v40.2h-62.6V50.4z M318.7,101.9h62.6V343h-62.6V101.9z M318.7,354.2h62.6v4.7L350,402.7l-31.3-43.8V354.2z
		 M350,450.8c-17.4,0-31.9,12.8-34.6,29.4h-92.8v-20.1c0-3.1-2.5-5.6-5.6-5.6h-51.8c-0.3,0-0.7,0-1.1,0c-2.7,0.5-4.6,2.9-4.5,5.6
		v51.4c0,3.1,2.5,5.6,5.6,5.6H217c3.1,0,5.6-2.5,5.6-5.6v-20.1h92.8c2.7,16.6,17.2,29.4,34.6,29.4s31.9-12.8,34.6-29.4h92.8v20.1
		c0,3.1,2.5,5.6,5.6,5.6h51.8c3.1,0,5.6-2.5,5.6-5.6v-51.4c0.1-2.7-1.9-5.1-4.5-5.6c-0.4,0-0.7,0-1.1,0H483c-3.1,0-5.6,2.5-5.6,5.6
		v20.1h-92.8C381.9,463.6,367.4,450.8,350,450.8L350,450.8z M350,462c13.3,0,24,10.6,24,23.8s-10.7,23.8-24,23.8s-24-10.6-24-23.8
		S336.7,462,350,462z M170.8,465.7h40.6v40.2h-40.6L170.8,465.7z M488.6,465.7h40.6v40.2h-40.6V465.7z"/>
</g>
</svg>
