<?xml version="1.0" encoding="utf-8"?>
<!-- Generator: Adobe Illustrator 25.4.2, SVG Export Plug-In . SVG Version: 6.00 Build 0)  -->
<svg version="1.1" id="Layer_1" xmlns="http://www.w3.org/2000/svg" xmlns:xlink="http://www.w3.org/1999/xlink" x="0px" y="0px"
	 viewBox="0 0 700 700" style="enable-background:new 0 0 700 700;" xml:space="preserve">
<style type="text/css">
	.st0{fill:#FF7F00;}
</style>
<g>
	<path class="st0" d="M513.8,387.7c9.1,7.9,16.7,17.5,22.5,28.3c5.8,10.9,10.1,23.1,12.8,36.2c2.7,13.2,4.6,26.7,5.6,40
		c0.5,8.5,1,18.5,1.5,29.9c0.5,11.5,1.4,23.5,2.6,35.5c1.3,12.1,3.3,23.7,6.1,34.6c0.7,2.7,1.5,5.3,2.4,7.9h7.2
		c-1.1-3-2.2-6.2-3-9.5c-2.7-10.5-4.7-21.8-5.9-33.6c-1.3-11.9-2.1-23.7-2.6-35c-0.5-11.5-1-21.5-1.5-30.1
		c-1-13.6-2.9-27.4-5.7-40.9c-2.8-13.8-7.3-26.6-13.4-38c-6.2-11.5-14.2-21.7-24-30.2c-5.6-4.9-12.2-9-19.6-12.5v7.5
		C504.4,380.5,509.4,383.9,513.8,387.7L513.8,387.7z"/>
	<path class="st0" d="M471.7,98.2c13.9,5.6,26.4,12.8,37.4,21.5v-3.3h6.6c-12.1-10-25.9-18.3-41.5-24.6c-9.4-3.8-19.5-6.7-30.1-8.6
		v6.9C453.8,92,463,94.7,471.7,98.2L471.7,98.2z"/>
	<path class="st0" d="M542,311.1c-9.7,16.8-24.2,30.7-43.3,41.5v7.7c21.8-11.7,38.3-27,49.1-45.8c9.3-16.2,15.4-34.6,18.3-55h-6.9
		C556.5,278.6,550.7,295.9,542,311.1L542,311.1z"/>
	<path class="st0" d="M138.1,80h268.6v6.8H138.1V80z"/>
	<path class="st0" d="M116.1,102h6.8v498h-6.8V102z"/>
	<path class="st0" d="M454.2,557.7c-1.5-23.4-3.8-46.1-6.8-67.7c-1.7-11.7-4.2-22.1-7.5-31.3h-7.2c3.5,9.3,6.2,20,8,32.2
		c3,21.4,5.2,44,6.7,67.2c1,15.2,3,29.2,6.1,41.8h7.1C457.4,587.3,455.2,573.2,454.2,557.7L454.2,557.7z"/>
	<path class="st0" d="M233.8,428.1h6.8V600h-6.8V428.1z"/>
	<path class="st0" d="M414.8,421.4c-13.8-10.1-33.9-15.3-59.9-15.3h-99v6.8h99c22.1,0,39.5,3.8,51.9,11.3v-2.8H414.8z"/>
	<path class="st0" d="M138.1,615.3h80.4v6.8h-80.4V615.3z"/>
	<path class="st0" d="M481.4,615.3h80.5v6.8h-80.5L481.4,615.3z"/>
	<path class="st0" d="M424.6,195c7.5,6.5,12.8,15.7,15.8,27.1h7.1c-3.3-13.6-9.5-24.4-18.5-32.2c-6.9-6-15.5-10.5-25.7-13.6v7.2
		C411.8,186.2,418.9,190,424.6,195L424.6,195z"/>
	<path class="st0" d="M255.8,322.1H366v6.8H255.8V322.1z"/>
	<path class="st0" d="M255.8,171.4H366v6.8H255.8V171.4z"/>
	<path class="st0" d="M233.8,193.5h6.8v112.9h-6.8V193.5z"/>
	<path class="st0" d="M424.6,305c-5.7,5.1-12.8,9-21.2,11.8v7.2c10.2-3.1,18.9-7.8,25.8-13.9c12.3-11,19.4-28,21-50.6h-6.8
		C441.7,280,435.5,295.3,424.6,305L424.6,305z"/>
	<path class="st0" d="M107.6,71.5h23.7v23.8h-23.7C107.6,95.3,107.6,71.5,107.6,71.5z"/>
	<path class="st0" d="M413.5,71.5h23.7v23.8h-23.7V71.5z"/>
	<path class="st0" d="M225.3,163h23.8v23.8h-23.8V163z"/>
	<path class="st0" d="M225.3,313.2h23.8V337h-23.8V313.2z"/>
	<path class="st0" d="M225.3,397.6h23.8v23.7h-23.8V397.6z"/>
	<path class="st0" d="M413.5,428.1h23.7v23.7h-23.7V428.1z"/>
	<path class="st0" d="M225.3,606.8h23.8v23.8h-23.8V606.8z"/>
	<path class="st0" d="M107.6,606.8h23.7v23.8h-23.7C107.6,630.6,107.6,606.8,107.6,606.8z"/>
	<path class="st0" d="M450.9,606.8h23.7v23.8h-23.7V606.8z"/>
	<path class="st0" d="M568.6,606.8h23.8v23.8h-23.8V606.8z"/>
	<path class="st0" d="M468.2,354.9h23.7v23.7h-23.7V354.9z"/>
	<path class="st0" d="M435.6,228.9h23.7v23.7h-23.7V228.9z"/>
	<path class="st0" d="M372.8,163h23.7v23.8h-23.7V163z"/>
	<path class="st0" d="M372.8,313.2h23.7V337h-23.7V313.2z"/>
	<path class="st0" d="M515.9,123.2h23.8v23.7h-23.8V123.2z"/>
	<path class="st0" d="M577.1,252.7V229H568V92.8c4.9-1.5,8.6-6,8.6-11.4c0-6.6-5.4-11.9-11.9-11.9c-6.6,0-11.9,5.3-11.9,11.9
		c0,5.4,3.6,9.9,8.6,11.4v91.4c-1.2-4-2.6-7.9-4.2-11.8c-2.9-7.2-6.6-14-10.6-20.6v1.9h-6.8c4.3,6.7,8.1,13.8,11.1,21.3
		c6,14.7,9.4,30.5,10.4,47.1h0.1v6.8h-7.9v23.7h7.9V388c-4.9,1.5-8.6,6-8.6,11.4c0,6.6,5.4,11.9,11.9,11.9c6.6,0,11.9-5.3,11.9-11.9
		c0-5.4-3.6-9.9-8.6-11.4V252.7H577.1z"/>
</g>
</svg>
