<?xml version="1.0" encoding="utf-8"?>
<!-- Generator: Adobe Illustrator 25.4.2, SVG Export Plug-In . SVG Version: 6.00 Build 0)  -->
<svg version="1.1" id="Layer_1" xmlns="http://www.w3.org/2000/svg" xmlns:xlink="http://www.w3.org/1999/xlink" x="0px" y="0px"
	 viewBox="0 0 700 700" style="enable-background:new 0 0 700 700;" xml:space="preserve">
<style type="text/css">
	.st0{fill:#FF7F00;}
</style>
<g>
	<path class="st0" d="M551.6,207.2V196h-11.2v-11.2h-11.2v-11.2H518v-11.2l0,0H383.6c-13.9,0-25.7,8.4-30.9,20.4
		c-5.1-11.9-16.9-20.4-30.7-20.4H187.6v11.2h-11.2v11.2h-11.2V196H154v11.2h-11.2v196h420l0-196L551.6,207.2z M148.4,397.6l5.6-5.6
		h154c3.6,0,6.7,2.4,7.8,5.6H148.4z M321.6,397.6c-1.3-6.4-6.9-11.2-13.6-11.2l-148.4,0l5.6-5.6h145.6c9.3,0,16.8,7.5,16.8,16.8
		L321.6,397.6z M333.2,397.6c0-12.4-10-22.4-22.4-22.4l-140,0l5.6-5.6h134.4c15.5,0,28,12.5,28,28L333.2,397.6z M344.4,397.6
		c0-18.5-15-33.6-33.6-33.6H182l5.6-5.6v0l123.2,0c21.6,0,39.2,17.6,39.2,39.2L344.4,397.6z M350,375.9
		c-7.6-13.8-22.3-23.1-39.2-23.1H193.2V168H322c15.5,0,28,12.5,28,28L350,375.9z M355.6,196c0-15.5,12.5-28,28-28h128.8v184.8H394.8
		c-16.9,0-31.6,9.3-39.2,23.1L355.6,196z M355.6,397.6c0-21.6,17.6-39.2,39.2-39.2l123.2,0V179.2h5.6V364H394.8
		c-18.6,0-33.6,15.1-33.6,33.6L355.6,397.6z M366.8,397.6c0-15.5,12.5-28,28-28h134.4V190.4h5.6v184.8h-140
		c-12.4,0-22.4,10-22.4,22.4L366.8,397.6z M384,397.6h-6c0-9.3,7.5-16.8,16.8-16.8h145.6l0-179.2h5.6v184.8l-148.4,0
		C390.8,386.4,385.3,391.2,384,397.6L384,397.6z M557.2,397.6H389.8c1.1-3.2,4.2-5.6,7.8-5.6h154V212.8h5.6L557.2,397.6z"/>
	<path class="st0" d="M266,336h50.4v5.6H266V336z"/>
	<path class="st0" d="M266,324.8h50.4v5.6H266V324.8z"/>
	<path class="st0" d="M266,313.6h50.4v5.6H266V313.6z"/>
	<path class="st0" d="M266,302.4h50.4v5.6H266V302.4z"/>
	<path class="st0" d="M266,291.2h50.4v5.6H266V291.2z"/>
	<path class="st0" d="M266,280h50.4v5.6H266V280z"/>
	<path class="st0" d="M266,268.8h50.4v5.6H266V268.8z"/>
	<path class="st0" d="M204.4,336h50.4v5.6h-50.4V336z"/>
	<path class="st0" d="M204.4,324.8h50.4v5.6h-50.4V324.8z"/>
	<path class="st0" d="M204.4,313.6h50.4v5.6h-50.4V313.6z"/>
	<path class="st0" d="M204.4,302.4h50.4v5.6h-50.4V302.4z"/>
	<path class="st0" d="M204.4,291.2h50.4v5.6h-50.4V291.2z"/>
	<path class="st0" d="M204.4,280h50.4v5.6h-50.4V280z"/>
	<path class="st0" d="M204.4,268.8h50.4v5.6h-50.4V268.8z"/>
	<path class="st0" d="M204.4,179.2h112v78.4h-112V179.2z"/>
	<path class="st0" d="M450.8,336h50.4v5.6h-50.4V336z"/>
	<path class="st0" d="M450.8,324.8h50.4v5.6h-50.4V324.8z"/>
	<path class="st0" d="M450.8,313.6h50.4v5.6h-50.4V313.6z"/>
	<path class="st0" d="M450.8,302.4h50.4v5.6h-50.4V302.4z"/>
	<path class="st0" d="M450.8,291.2h50.4v5.6h-50.4V291.2z"/>
	<path class="st0" d="M450.8,280h50.4v5.6h-50.4V280z"/>
	<path class="st0" d="M450.8,268.8h50.4v5.6h-50.4V268.8z"/>
	<path class="st0" d="M389.2,302.4h50.4v5.6h-50.4V302.4z"/>
	<path class="st0" d="M389.2,291.2h50.4v5.6h-50.4V291.2z"/>
	<path class="st0" d="M389.2,280h50.4v5.6h-50.4V280z"/>
	<path class="st0" d="M389.2,268.8h50.4v5.6h-50.4V268.8z"/>
	<path class="st0" d="M389.2,179.2h112v78.4h-112V179.2z"/>
</g>
</svg>
