<?xml version="1.0" encoding="utf-8"?>
<!-- Generator: Adobe Illustrator 25.4.2, SVG Export Plug-In . SVG Version: 6.00 Build 0)  -->
<svg version="1.1" id="Layer_1" xmlns="http://www.w3.org/2000/svg" xmlns:xlink="http://www.w3.org/1999/xlink" x="0px" y="0px"
	 viewBox="0 0 700 700" style="enable-background:new 0 0 700 700;" xml:space="preserve">
<style type="text/css">
	.st0{fill:#DEB818;}
</style>
<g>
	<path class="st0" d="M192.1,39.2c-2.6,0.5-4.6,3-4.6,5.6v78.4c0,1.4,0.6,2.8,1.6,3.9l152.8,153L189.2,432.8c-1,1.1-1.6,2.5-1.6,4
		v78.4c0,2.9,2.7,5.6,5.6,5.6h313.6c2.9,0,5.6-2.7,5.6-5.6v-78.4c0-1.5-0.5-3-1.6-4L358.1,280l152.8-152.9c1-1,1.6-2.4,1.6-3.9V44.8
		c0-2.9-2.7-5.6-5.6-5.6H192.1L192.1,39.2z M198.8,50.4h302.4v70.4L350,272L198.8,120.8V50.4z M350,287.9l151.2,151.2v70.5H198.8
		v-70.5L350,287.9z M350,324.8l-112,112v56h224v-56L350,324.8z"/>
</g>
</svg>
