<?xml version="1.0" encoding="utf-8"?>
<!-- Generator: Adobe Illustrator 25.4.2, SVG Export Plug-In . SVG Version: 6.00 Build 0)  -->
<svg version="1.1" id="Layer_1" xmlns="http://www.w3.org/2000/svg" xmlns:xlink="http://www.w3.org/1999/xlink" x="0px" y="0px"
	 viewBox="0 0 700 700" style="enable-background:new 0 0 700 700;" xml:space="preserve">
<style type="text/css">
	.st0{fill:#FF7F00;}
</style>
<g>
	<path class="st0" d="M594.1,306v-52h-52v20.4H362.9c-111.5,0-198-86.3-211.9-210.5c11.2-2.8,19.5-12.8,19.5-24.8
		c0-14.2-11.5-25.7-25.7-25.7c-14.2,0-25.7,11.5-25.7,25.7c0,12.4,8.9,22.8,20.6,25.2c7.1,65.1,32.9,120.7,75.1,161.2
		c23.4,22.4,50.8,39,80.4,49l-137.3,0V254h-52v52h52v-20.4H350c111.5,0,198,86.3,211.9,210.5c-11.2,2.8-19.5,12.8-19.5,24.8
		c0,14.2,11.5,25.7,25.7,25.7s25.7-11.5,25.7-25.7c0-12.4-8.9-22.8-20.6-25.2c-7.1-65.1-32.9-120.7-75.1-161.2
		c-23.4-22.4-50.8-39-80.4-49h124.4V306L594.1,306z"/>
</g>
</svg>
