<?xml version="1.0" encoding="utf-8"?>
<!-- Generator: Adobe Illustrator 25.4.2, SVG Export Plug-In . SVG Version: 6.00 Build 0)  -->
<svg version="1.1" id="Layer_1" xmlns="http://www.w3.org/2000/svg" xmlns:xlink="http://www.w3.org/1999/xlink" x="0px" y="0px"
	 viewBox="0 0 700 700" style="enable-background:new 0 0 700 700;" xml:space="preserve">
<style type="text/css">
	.st0{fill:#FFFFFF;}
</style>
<g>
	<path class="st0" d="M505,538.6h-0.9c-3,0-5.5-2.4-5.5-5.5s2.4-5.5,5.5-5.5h0.9c1.4,0,2.7-0.6,3.7-1.6s1.4-2.4,1.2-3.8
		c-0.2-1.4,0.3-2.9,1.2-4c0.9-1.1,2.2-1.9,3.7-2c1.4-0.2,2.9,0.3,4,1.2c1.1,0.9,1.8,2.2,2,3.7c0.1,0.6,0.1,1.1,0.1,1.7
		c0,4.2-1.7,8.2-4.7,11.2C513.2,536.9,509.2,538.6,505,538.6L505,538.6z M486.8,538.6h-17.4c-3,0-5.5-2.4-5.5-5.5s2.4-5.5,5.5-5.5
		h17.4c3,0,5.5,2.4,5.5,5.5S489.8,538.6,486.8,538.6z M452,538.6h-17.4c-3,0-5.5-2.4-5.5-5.5s2.4-5.5,5.5-5.5H452
		c3,0,5.5,2.4,5.5,5.5S455,538.6,452,538.6z M417.3,538.6h-17.4c-3,0-5.5-2.4-5.5-5.5s2.4-5.5,5.5-5.5h17.4c3,0,5.5,2.4,5.5,5.5
		S420.3,538.6,417.3,538.6L417.3,538.6z M382.5,538.6h-17.4c-3,0-5.5-2.4-5.5-5.5s2.4-5.5,5.5-5.5h17.4h0c3,0,5.5,2.4,5.5,5.5
		S385.5,538.6,382.5,538.6L382.5,538.6z M347.8,538.6h-11.5c-3,0-5.9-0.8-8.5-2.4c-2.6-1.6-3.3-5-1.7-7.5c1.6-2.6,5-3.3,7.5-1.7
		c0.8,0.5,1.7,0.8,2.6,0.8h11.5c3,0,5.5,2.4,5.5,5.5S350.8,538.6,347.8,538.6L347.8,538.6z M324.5,521.4c-2.6,0-4.9-1.9-5.4-4.4
		c-1.1-5.8-2.3-11.5-3.5-16.8c-0.4-1.4-0.1-2.9,0.6-4.2c0.8-1.3,2-2.2,3.4-2.5c1.4-0.3,3-0.1,4.2,0.7c1.2,0.8,2.1,2.1,2.4,3.5
		c1.3,5.5,2.5,11.2,3.6,17.2l0,0c0.3,1.4,0,2.9-0.9,4.1c-0.8,1.2-2.1,2-3.5,2.3C325.1,521.3,324.8,521.4,324.5,521.4L324.5,521.4z
		 M510.8,510.4c-2.5,0-4.6-1.7-5.3-4.1c-1.4-5.2-2.8-11-4.2-17c-0.4-1.4-0.1-2.9,0.6-4.2c0.8-1.3,2-2.1,3.4-2.5
		c1.4-0.3,2.9-0.1,4.2,0.7c1.2,0.8,2.1,2,2.4,3.5c1.4,5.9,2.8,11.6,4.2,16.7h0c0.8,2.9-1,5.9-3.9,6.7
		C511.8,510.3,511.3,510.4,510.8,510.4L510.8,510.4z M316.5,487.5L316.5,487.5c-2.4,0-4.6-1.6-5.2-3.9c-1.5-5.3-3.4-10.5-5.6-15.6
		c-1.2-2.7,0-5.9,2.7-7.2c2.7-1.3,5.9-0.1,7.2,2.5c2.5,5.5,4.5,11.3,6.2,17.1c0.5,1.7,0.2,3.4-0.9,4.8
		C319.8,486.7,318.2,487.5,316.5,487.5L316.5,487.5z M503,476.5c-2.6,0-4.9-1.9-5.4-4.4c-1.2-6-2.2-11.9-3-17.4
		c-0.2-1.4,0.1-2.9,1-4.1c0.9-1.2,2.2-2,3.6-2.2c1.5-0.2,2.9,0.2,4.1,1c1.2,0.9,1.9,2.2,2.1,3.7c0.8,5.3,1.8,11,2.9,16.9
		c0.3,1.6-0.1,3.3-1.1,4.5C506.2,475.8,504.6,476.5,503,476.5L503,476.5z M299.3,458.6L299.3,458.6c-0.9,0-1.7-0.2-2.5-0.6
		c-4.6-2.1-9.6-3.3-14.7-3.6c-3-0.2-5.3-2.9-5-5.9c0.2-3,2.9-5.3,5.9-5c6.5,0.3,12.9,1.9,18.8,4.7c2.3,1.1,3.4,3.7,2.8,6.2
		C304,456.8,301.8,458.6,299.3,458.6L299.3,458.6z M225.6,457.7L225.6,457.7c-4.5,0-9-0.4-13.5-1.2c-1.5-0.2-2.8-1.1-3.6-2.3
		c-0.8-1.2-1.1-2.7-0.9-4.2c0.3-1.5,1.2-2.7,2.4-3.5c1.3-0.8,2.8-1.1,4.2-0.7c3.7,0.7,7.5,1.1,11.3,1h0c1.5,0,3,0,4.5-0.1
		c3-0.2,5.6,2.1,5.8,5.1c0.2,3-2,5.6-5,5.9h-0.5C229,457.6,227.3,457.6,225.6,457.7L225.6,457.7z M248.5,456l-1.1-10.9
		c5.7-0.6,11.6-1.2,17.5-1.6h0c3-0.2,5.6,2.1,5.8,5.1c0.2,3-2.1,5.6-5.1,5.8C259.8,454.8,254.1,455.4,248.5,456L248.5,456z
		 M197.9,449.1L197.9,449.1c-1.4,0-2.7-0.5-3.7-1.5c-4.8-4.7-8.3-10.6-10.1-17.2c-0.9-2.9,0.7-5.9,3.6-6.8c2.9-0.9,5.9,0.7,6.8,3.6
		c1.2,4.7,3.7,9,7.1,12.4c1.6,1.5,2.2,3.9,1.4,6C202.2,447.7,200.1,449.1,197.9,449.1L197.9,449.1z M498,442.1L498,442.1
		c-2.9,0-5.2-2.2-5.5-5c-0.1-1.1-0.2-2.3-0.2-3.4c-0.1-1.8-0.2-3.6-0.2-5.4c0-3.1,0.1-6.2,0.4-9.5h0c0.3-3,2.9-5.2,5.9-4.9
		c3,0.3,5.2,2.9,4.9,5.9c-0.3,2.9-0.4,5.8-0.4,8.5c0,1.6,0,3.2,0.1,4.7c0.1,1.1,0.1,2.1,0.2,3.2c0.2,3-2,5.6-5,5.9
		C498.3,442.1,498.1,442.1,498,442.1L498,442.1z M186,417.3c-2.8,0-5.1-2.1-5.4-4.8c-0.4-3.5-0.7-7.1-1.1-10.8
		c-0.2-2.2-0.4-4.4-0.6-6.6h0c-0.3-3,1.9-5.7,4.9-6c3-0.3,5.7,1.9,6,4.9c0.2,2.2,0.4,4.5,0.6,6.6c0.3,3.6,0.7,7.2,1.1,10.6
		c0.2,1.4-0.2,2.9-1.1,4c-0.9,1.1-2.2,1.9-3.7,2C186.5,417.2,186.2,417.3,186,417.3L186,417.3z M501,407.6c-1.7,0-3.3-0.8-4.3-2.1
		c-1-1.3-1.4-3.1-1-4.7c1.5-5.9,3.5-11.7,6-17.3c1.2-2.8,4.5-4,7.2-2.7c2.8,1.2,4,4.5,2.7,7.2c-2.2,5-4,10.2-5.3,15.5
		C505.7,405.9,503.5,407.6,501,407.6L501,407.6z M182,382.7c-2.6,0-4.9-1.9-5.4-4.5c-0.6-3.4-1.4-6.7-2.4-10c-0.5-1.9-1.2-3.7-2-5.5
		c-1.2-2.8,0.1-6,2.9-7.2c2.8-1.2,6,0.1,7.2,2.9c0.9,2.2,1.7,4.4,2.4,6.7c1,3.5,1.9,7.1,2.6,11.1c0.3,1.4,0,2.9-0.9,4.1
		c-0.8,1.2-2.1,2-3.5,2.3C182.7,382.7,182.4,382.7,182,382.7L182,382.7z M515.7,376.5c-2.1,0-4-1.2-4.9-3c-0.9-1.9-0.7-4.1,0.6-5.7
		c3.6-4.7,7-9.4,10.2-13.8c0.8-1.2,2.1-2.1,3.5-2.3c1.4-0.3,2.9,0.1,4.1,0.9c1.2,0.8,2,2.1,2.2,3.6c0.2,1.4-0.1,2.9-1,4.1
		c-3.2,4.6-6.7,9.3-10.4,14.2C519.1,375.7,517.5,376.5,515.7,376.5L515.7,376.5z M167.6,351.9c-1.4,0-2.8-0.5-3.8-1.5
		c-3-2.7-6.2-5.1-9.5-7.2c-1.3-0.9-2.6-1.7-3.8-2.6c-1.2-0.8-2-2.1-2.3-3.5c-0.3-1.4,0.1-2.9,0.9-4.1c0.8-1.2,2.1-2,3.6-2.2
		c1.4-0.2,2.9,0.1,4.1,1c1.1,0.8,2.3,1.6,3.5,2.4c3.9,2.4,7.6,5.3,11.1,8.4c1.6,1.5,2.1,3.9,1.3,6
		C171.8,350.5,169.8,351.9,167.6,351.9L167.6,351.9z M535.7,348.1c-2,0-3.8-1.1-4.8-2.8c-1-1.8-0.9-3.9,0.2-5.6
		c3.2-4.9,6.1-9.9,8.8-14.6c0.7-1.3,1.9-2.2,3.3-2.6c1.4-0.4,2.9-0.2,4.2,0.5c2.6,1.5,3.6,4.8,2.1,7.5c-2.8,4.9-5.9,10-9.1,15.1
		C539.3,347.1,537.6,348.1,535.7,348.1L535.7,348.1z M144.3,327.7c-2.8,0-5.1-2.1-5.4-4.9c-0.1-1-0.1-1.9-0.1-2.9c0-0.6,0-1.1,0-1.8
		c0.9-5.7,3.6-10.9,7.7-14.9c2-2.2,5.4-2.4,7.6-0.5c2.3,1.9,2.6,5.3,0.7,7.6c-2.3,2.4-4.1,5.3-5.1,8.4c0,0.4,0,0.8,0,1.2
		c0,0.6,0,1.2,0.1,1.8c0.2,1.4-0.3,2.9-1.2,4c-0.9,1.1-2.2,1.8-3.7,2C144.7,327.7,144.5,327.7,144.3,327.7L144.3,327.7z
		 M552.8,317.9L552.8,317.9c-1.9,0-3.6-1-4.6-2.6c-1-1.6-1.1-3.6-0.3-5.3c2.5-5.2,4.8-10.4,6.8-15.5h0c1.1-2.8,4.3-4.1,7.1-3
		c2.8,1.1,4.2,4.2,3.1,7c-2.1,5.4-4.5,10.8-7.1,16.3C556.8,316.7,554.9,317.9,552.8,317.9L552.8,317.9z M162.2,299.2
		c-2.1,0-4.1-1.2-5-3.2c-0.9-1.9-0.6-4.2,0.8-5.8c3.6-4.2,6.9-8.6,9.8-13.3c1.6-2.6,4.9-3.4,7.5-1.8c2.6,1.6,3.4,4.9,1.8,7.5
		c-3.2,5.2-6.8,10.1-10.8,14.7C165.3,298.5,163.8,299.2,162.2,299.2L162.2,299.2z M565.4,285.5c-1.7,0-3.3-0.8-4.4-2.2
		c-1-1.4-1.4-3.2-0.9-4.8c1.6-5.4,3-10.9,4-16.4l0,0c0.2-1.5,1.1-2.8,2.3-3.6c1.2-0.8,2.7-1.2,4.2-0.9s2.7,1.1,3.5,2.4
		c0.8,1.2,1.1,2.7,0.8,4.2c-1.1,5.8-2.6,11.6-4.2,17.4C570,283.9,567.8,285.5,565.4,285.5L565.4,285.5z M179.7,269.5
		c-1.8,0-3.4-0.8-4.4-2.3c-1-1.4-1.3-3.2-0.8-4.9c1.6-5.1,2.6-10.3,3-15.7c0.1-1.4,0.8-2.8,1.8-3.8c1.1-1,2.5-1.4,4-1.4
		c1.4,0.1,2.8,0.8,3.8,1.8c1,1.1,1.4,2.5,1.4,4c-0.4,6.2-1.6,12.4-3.5,18.3C184.2,268,182.1,269.5,179.7,269.5L179.7,269.5z
		 M572,251.5c-0.2,0-0.4,0-0.5,0l0,0c-3-0.3-5.2-3-4.9-6c0.5-5.5,0.8-11.1,0.8-16.7h0c0-3,2.4-5.5,5.5-5.5c1.4,0,2.8,0.5,3.9,1.6
		c1,1,1.6,2.4,1.6,3.8c0,6.1-0.3,12-0.8,17.9v0C577.2,249.3,574.8,251.5,572,251.5L572,251.5z M182.6,235.1c-2.9,0-5.3-2.2-5.4-5.1
		c-0.2-4-0.6-8.1-0.9-12.2l-0.4-5c-0.2-1.5,0.3-2.9,1.2-4.1c0.9-1.1,2.3-1.8,3.8-1.9c1.5-0.1,2.9,0.4,4,1.4c1.1,1,1.8,2.4,1.8,3.8
		l0.4,5c0.3,4.2,0.7,8.4,0.9,12.4h0c0.1,1.4-0.4,2.9-1.4,4c-1,1.1-2.3,1.8-3.8,1.8L182.6,235.1z M572,216.8c-2.8,0-5.2-2.2-5.4-5
		c-0.4-4-0.9-8.2-1.5-12.2c-0.2-1.5-0.5-3-0.7-4.5c-0.2-1.4,0.1-2.9,0.9-4.1s2.1-2,3.5-2.2c3-0.5,5.8,1.5,6.3,4.5
		c0.3,1.6,0.5,3.1,0.8,4.7c0.7,4.3,1.2,8.7,1.6,12.9v0c0.1,1.4-0.3,2.9-1.2,4c-0.9,1.1-2.3,1.8-3.7,1.9
		C572.4,216.8,572.2,216.8,572,216.8L572,216.8z M180.4,200.4c-3,0-5.4-2.4-5.5-5.4v-1.3c0-5.6,0.3-11.2,0.9-16.7
		c0.2-1.4,0.9-2.8,2-3.7c1.1-0.9,2.6-1.3,4-1.2c3,0.3,5.2,3.1,4.8,6.1c-0.6,5.1-0.9,10.3-0.9,15.5v1.2c0,1.4-0.5,2.8-1.6,3.9
		C183.3,199.8,181.9,200.4,180.4,200.4L180.4,200.4z M566.2,182.6c-2.5,0-4.7-1.7-5.3-4.2c-1.4-5.6-3-11-4.7-16.2
		c-1-2.9,0.6-6,3.4-6.9c2.9-1,6,0.6,6.9,3.4c1.8,5.5,3.5,11.3,5,17.1c0.4,1.6,0,3.4-1,4.7C569.5,181.8,567.9,182.6,566.2,182.6
		L566.2,182.6z M184.4,166c-1.7,0-3.3-0.8-4.3-2.1c-1-1.3-1.4-3-1-4.7c1.4-5.9,3.2-11.6,5.3-17.2c0.5-1.4,1.5-2.5,2.9-3.2
		c1.3-0.6,2.9-0.7,4.2-0.2s2.5,1.6,3.1,2.9c0.6,1.4,0.6,2.9,0,4.3c-2,5.2-3.6,10.5-4.9,15.9C189.1,164.3,186.9,166,184.4,166
		L184.4,166z M555.2,149.7L555.2,149.7c-2.2,0-4.1-1.3-5-3.3c-2.2-5.2-4.8-10.2-7.4-15.1v0c-0.7-1.3-0.9-2.8-0.5-4.2
		s1.3-2.6,2.6-3.3c1.3-0.7,2.8-0.9,4.2-0.5s2.6,1.4,3.3,2.7c2.9,5.2,5.5,10.6,7.9,16c0.7,1.7,0.6,3.6-0.4,5.2
		C558.8,148.8,557,149.7,555.2,149.7L555.2,149.7z M196.7,133.7c-1.9,0-3.7-1-4.7-2.7c-1-1.6-1-3.7-0.1-5.4
		c2.8-5.3,5.9-10.4,9.3-15.4c0.8-1.2,2.1-2,3.5-2.3c1.4-0.3,2.9,0,4.1,0.9c1.2,0.8,2,2.1,2.3,3.5s-0.1,2.9-0.9,4.1
		c-3.2,4.6-6.1,9.3-8.7,14.3C200.6,132.5,198.7,133.7,196.7,133.7L196.7,133.7z M538.4,119.4c-1.8,0-3.5-0.9-4.5-2.4
		c-3.2-4.6-6.6-9-10.3-13.3c-2-2.3-1.7-5.8,0.6-7.7c2.3-2,5.8-1.7,7.7,0.6c3.9,4.5,7.5,9.3,10.9,14.2c1.2,1.7,1.3,3.8,0.4,5.6
		C542.3,118.3,540.4,119.4,538.4,119.4L538.4,119.4z M216.4,105.1c-2.1,0-4.1-1.3-5-3.2c-0.9-2-0.5-4.2,0.9-5.9
		c3.9-4.5,8.1-8.8,12.5-12.9c2.2-2.1,5.7-1.9,7.7,0.3c2.1,2.2,1.9,5.7-0.3,7.7c-4.1,3.8-8,7.8-11.7,12
		C219.4,104.4,217.9,105.1,216.4,105.1L216.4,105.1z M515.8,93.1c-1.4,0-2.7-0.5-3.8-1.5c-4.1-3.8-8.3-7.5-12.8-10.9
		c-2.4-1.8-2.9-5.3-1-7.7c1.8-2.4,5.3-2.9,7.7-1c4.8,3.6,9.3,7.5,13.7,11.6c1.6,1.5,2.2,3.9,1.3,6C520.1,91.7,518,93.1,515.8,93.1
		L515.8,93.1z M241.8,81.6c-2.3,0-4.4-1.5-5.2-3.7c-0.7-2.2,0-4.7,1.9-6.1c4.7-3.5,9.7-6.9,14.8-10.1c1.2-0.8,2.7-1.1,4.2-0.7
		c1.4,0.3,2.7,1.2,3.4,2.5c0.8,1.3,1,2.8,0.6,4.2c-0.4,1.4-1.3,2.6-2.5,3.4c-4.8,3-9.5,6.1-13.9,9.5h0
		C244.1,81.2,243,81.6,241.8,81.6L241.8,81.6z M488.3,72.1L488.3,72.1c-1,0-2-0.3-2.9-0.8c-4.7-2.9-9.7-5.6-14.8-8.1
		c-1.3-0.6-2.4-1.7-2.9-3.1s-0.4-2.9,0.2-4.2c0.7-1.3,1.8-2.3,3.2-2.8c1.4-0.5,2.9-0.3,4.2,0.4c5.4,2.6,10.6,5.5,15.7,8.6h0
		c2.1,1.3,3.1,3.8,2.4,6.1C492.8,70.4,490.7,72,488.3,72.1L488.3,72.1z M271.3,63.4c-2.5,0-4.7-1.8-5.3-4.2c-0.6-2.5,0.6-5,2.9-6.2
		c5.2-2.6,10.7-5,16.3-7.2c1.4-0.6,2.9-0.5,4.2,0c1.3,0.6,2.4,1.7,2.9,3s0.5,2.9-0.1,4.2s-1.7,2.4-3.1,2.9
		c-5.2,2.1-10.5,4.4-15.4,6.9C273,63.2,272.2,63.4,271.3,63.4L271.3,63.4z M457.2,56.7c-0.7,0-1.3-0.1-2-0.4c-5.2-2-10.5-3.8-16-5.4
		c-2.9-0.8-4.6-3.9-3.7-6.8c0.8-2.9,3.9-4.6,6.8-3.7c5.8,1.7,11.4,3.6,16.9,5.7h0c2.5,1,3.9,3.5,3.4,6.1
		C462,54.8,459.8,56.7,457.2,56.7L457.2,56.7z M303.6,50.7L303.6,50.7c-2.7,0-5-2-5.4-4.7c-0.4-2.7,1.2-5.2,3.8-6
		c5.6-1.7,11.4-3.2,17.2-4.5h0c1.4-0.3,2.9-0.1,4.2,0.7c1.2,0.8,2.1,2,2.4,3.5c0.3,1.4,0,2.9-0.8,4.2s-2.1,2.1-3.5,2.4
		c-5.5,1.2-11.1,2.6-16.4,4.2C304.7,50.6,304.1,50.7,303.6,50.7L303.6,50.7z M423.9,46.9c-0.4,0-0.8,0-1.1-0.1
		c-5.4-1.2-11.1-2.2-16.7-3h0c-3-0.4-5.1-3.2-4.6-6.2c0.4-3,3.2-5.1,6.2-4.6c5.9,0.8,11.8,1.9,17.5,3.1c2.7,0.6,4.6,3.1,4.3,5.9
		C429,44.8,426.7,46.9,423.9,46.9L423.9,46.9z M337.5,43.3c-2.9,0-5.3-2.2-5.5-5.1c-0.2-2.9,1.9-5.4,4.7-5.8
		c5.8-0.8,11.8-1.4,17.7-1.8h0c1.5-0.2,3,0.2,4.2,1.2c1.2,1,1.9,2.4,2,3.9s-0.4,3-1.5,4.1c-1,1.1-2.5,1.7-4,1.7
		c-5.6,0.4-11.3,0.9-16.9,1.7C338,43.3,337.8,43.3,337.5,43.3L337.5,43.3z M389.5,42h-0.4c-2.6-0.2-5.2-0.4-7.8-0.5
		c-3.1-0.2-6.1-0.3-9.2-0.3c-3,0-5.5-2.5-5.4-5.5c0-3,2.5-5.5,5.5-5.4h0.1c3.2,0,6.4,0.1,9.6,0.3c2.7,0.1,5.4,0.3,8.1,0.5v0
		c3,0.1,5.4,2.7,5.2,5.7S392.5,42.2,389.5,42L389.5,42z"/>
</g>
</svg>
