<?xml version="1.0" encoding="utf-8"?>
<!-- Generator: Adobe Illustrator 25.4.2, SVG Export Plug-In . SVG Version: 6.00 Build 0)  -->
<svg version="1.1" id="Layer_1" xmlns="http://www.w3.org/2000/svg" xmlns:xlink="http://www.w3.org/1999/xlink" x="0px" y="0px"
	 viewBox="0 0 700 700" style="enable-background:new 0 0 700 700;" xml:space="preserve">
<style type="text/css">
	.st0{fill:#FFFFFF;}
</style>
<g>
	<path class="st0" d="M496.4,588.6h-0.9c-3,0-5.5-2.4-5.5-5.5s2.4-5.5,5.5-5.5h0.9c1.4,0,2.7-0.6,3.7-1.6s1.4-2.4,1.2-3.8
		c-0.2-1.4,0.3-2.9,1.2-4s2.2-1.9,3.7-2c1.4-0.2,2.9,0.3,4,1.2s1.8,2.2,2,3.7c0.1,0.6,0.1,1.1,0.1,1.7c0,4.2-1.7,8.2-4.7,11.2
		C504.6,586.9,500.6,588.6,496.4,588.6L496.4,588.6z M478.2,588.6h-17.4c-3,0-5.5-2.4-5.5-5.5s2.4-5.5,5.5-5.5h17.4
		c3,0,5.5,2.4,5.5,5.5S481.2,588.6,478.2,588.6z M443.4,588.6H426c-3,0-5.5-2.4-5.5-5.5s2.4-5.5,5.5-5.5h17.4c3,0,5.5,2.4,5.5,5.5
		S446.4,588.6,443.4,588.6z M408.7,588.6h-17.4c-3,0-5.5-2.4-5.5-5.5s2.4-5.5,5.5-5.5h17.4c3,0,5.5,2.4,5.5,5.5
		S411.7,588.6,408.7,588.6L408.7,588.6z M373.9,588.6h-17.4c-3,0-5.5-2.4-5.5-5.5s2.4-5.5,5.5-5.5h17.4l0,0c3,0,5.5,2.4,5.5,5.5
		S376.9,588.6,373.9,588.6L373.9,588.6z M339.2,588.6h-11.5c-3,0-5.9-0.8-8.5-2.4c-2.6-1.6-3.3-5-1.7-7.5c1.6-2.6,5-3.3,7.5-1.7
		c0.8,0.5,1.7,0.8,2.6,0.8h11.5c3,0,5.5,2.4,5.5,5.5S342.2,588.6,339.2,588.6L339.2,588.6z M315.9,571.4c-2.6,0-4.9-1.9-5.4-4.4
		c-1.1-5.8-2.3-11.5-3.5-16.8c-0.4-1.4-0.1-2.9,0.6-4.2c0.8-1.3,2-2.2,3.4-2.5s3-0.1,4.2,0.7c1.2,0.8,2.1,2.1,2.4,3.5
		c1.3,5.5,2.5,11.2,3.6,17.2l0,0c0.3,1.4,0,2.9-0.9,4.1c-0.8,1.2-2.1,2-3.5,2.3C316.5,571.3,316.2,571.4,315.9,571.4L315.9,571.4z
		 M502.2,560.4c-2.5,0-4.6-1.7-5.3-4.1c-1.4-5.2-2.8-11-4.2-17c-0.4-1.4-0.1-2.9,0.6-4.2c0.8-1.3,2-2.1,3.4-2.5
		c1.4-0.3,2.9-0.1,4.2,0.7c1.2,0.8,2.1,2,2.4,3.5c1.4,5.9,2.8,11.6,4.2,16.7l0,0c0.8,2.9-1,5.9-3.9,6.7
		C503.2,560.3,502.7,560.4,502.2,560.4L502.2,560.4z M307.9,537.5L307.9,537.5c-2.4,0-4.6-1.6-5.2-3.9c-1.5-5.3-3.4-10.5-5.6-15.6
		c-1.2-2.7,0-5.9,2.7-7.2s5.9-0.1,7.2,2.5c2.5,5.5,4.5,11.3,6.2,17.1c0.5,1.7,0.2,3.4-0.9,4.8C311.2,536.7,309.6,537.5,307.9,537.5
		L307.9,537.5z M494.4,526.5c-2.6,0-4.9-1.9-5.4-4.4c-1.2-6-2.2-11.9-3-17.4c-0.2-1.4,0.1-2.9,1-4.1s2.2-2,3.6-2.2
		c1.5-0.2,2.9,0.2,4.1,1c1.2,0.9,1.9,2.2,2.1,3.7c0.8,5.3,1.8,11,2.9,16.9c0.3,1.6-0.1,3.3-1.1,4.5
		C497.6,525.8,496,526.5,494.4,526.5L494.4,526.5z M290.7,508.6L290.7,508.6c-0.9,0-1.7-0.2-2.5-0.6c-4.6-2.1-9.6-3.3-14.7-3.6
		c-3-0.2-5.3-2.9-5-5.9c0.2-3,2.9-5.3,5.9-5c6.5,0.3,12.9,1.9,18.8,4.7c2.3,1.1,3.4,3.7,2.8,6.2
		C295.4,506.8,293.2,508.6,290.7,508.6L290.7,508.6z M217,507.7L217,507.7c-4.5,0-9-0.4-13.5-1.2c-1.5-0.2-2.8-1.1-3.6-2.3
		c-0.8-1.2-1.1-2.7-0.9-4.2c0.3-1.5,1.2-2.7,2.4-3.5c1.3-0.8,2.8-1.1,4.2-0.7c3.7,0.7,7.5,1.1,11.3,1l0,0c1.5,0,3,0,4.5-0.1
		c3-0.2,5.6,2.1,5.8,5.1c0.2,3-2,5.6-5,5.9h-0.5C220.4,507.6,218.7,507.6,217,507.7L217,507.7z M239.9,506l-1.1-10.9
		c5.7-0.6,11.6-1.2,17.5-1.6l0,0c3-0.2,5.6,2.1,5.8,5.1c0.2,3-2.1,5.6-5.1,5.8C251.2,504.8,245.5,505.4,239.9,506L239.9,506z
		 M189.3,499.1L189.3,499.1c-1.4,0-2.7-0.5-3.7-1.5c-4.8-4.7-8.3-10.6-10.1-17.2c-0.9-2.9,0.7-5.9,3.6-6.8s5.9,0.7,6.8,3.6
		c1.2,4.7,3.7,9,7.1,12.4c1.6,1.5,2.2,3.9,1.4,6C193.6,497.7,191.5,499.1,189.3,499.1L189.3,499.1z M489.4,492.1L489.4,492.1
		c-2.9,0-5.2-2.2-5.5-5c-0.1-1.1-0.2-2.3-0.2-3.4c-0.1-1.8-0.2-3.6-0.2-5.4c0-3.1,0.1-6.2,0.4-9.5l0,0c0.3-3,2.9-5.2,5.9-4.9
		c3,0.3,5.2,2.9,4.9,5.9c-0.3,2.9-0.4,5.8-0.4,8.5c0,1.6,0,3.2,0.1,4.7c0.1,1.1,0.1,2.1,0.2,3.2c0.2,3-2,5.6-5,5.9
		C489.7,492.1,489.5,492.1,489.4,492.1L489.4,492.1z M177.4,467.3c-2.8,0-5.1-2.1-5.4-4.8c-0.4-3.5-0.7-7.1-1.1-10.8
		c-0.2-2.2-0.4-4.4-0.6-6.6l0,0c-0.3-3,1.9-5.7,4.9-6s5.7,1.9,6,4.9c0.2,2.2,0.4,4.5,0.6,6.6c0.3,3.6,0.7,7.2,1.1,10.6
		c0.2,1.4-0.2,2.9-1.1,4s-2.2,1.9-3.7,2C177.9,467.2,177.6,467.3,177.4,467.3L177.4,467.3z M492.4,457.6c-1.7,0-3.3-0.8-4.3-2.1
		c-1-1.3-1.4-3.1-1-4.7c1.5-5.9,3.5-11.7,6-17.3c1.2-2.8,4.5-4,7.2-2.7c2.8,1.2,4,4.5,2.7,7.2c-2.2,5-4,10.2-5.3,15.5
		C497.1,455.9,494.9,457.6,492.4,457.6L492.4,457.6z M173.4,432.7c-2.6,0-4.9-1.9-5.4-4.5c-0.6-3.4-1.4-6.7-2.4-10
		c-0.5-1.9-1.2-3.7-2-5.5c-1.2-2.8,0.1-6,2.9-7.2s6,0.1,7.2,2.9c0.9,2.2,1.7,4.4,2.4,6.7c1,3.5,1.9,7.1,2.6,11.1
		c0.3,1.4,0,2.9-0.9,4.1c-0.8,1.2-2.1,2-3.5,2.3C174.1,432.7,173.8,432.7,173.4,432.7L173.4,432.7z M507.1,426.5c-2.1,0-4-1.2-4.9-3
		c-0.9-1.9-0.7-4.1,0.6-5.7c3.6-4.7,7-9.4,10.2-13.8c0.8-1.2,2.1-2.1,3.5-2.3c1.4-0.3,2.9,0.1,4.1,0.9c1.2,0.8,2,2.1,2.2,3.6
		c0.2,1.4-0.1,2.9-1,4.1c-3.2,4.6-6.7,9.3-10.4,14.2C510.5,425.7,508.9,426.5,507.1,426.5L507.1,426.5z M159,401.9
		c-1.4,0-2.8-0.5-3.8-1.5c-3-2.7-6.2-5.1-9.5-7.2c-1.3-0.9-2.6-1.7-3.8-2.6c-1.2-0.8-2-2.1-2.3-3.5c-0.3-1.4,0.1-2.9,0.9-4.1
		c0.8-1.2,2.1-2,3.6-2.2c1.4-0.2,2.9,0.1,4.1,1c1.1,0.8,2.3,1.6,3.5,2.4c3.9,2.4,7.6,5.3,11.1,8.4c1.6,1.5,2.1,3.9,1.3,6
		C163.2,400.5,161.2,401.9,159,401.9L159,401.9z M527.1,398.1c-2,0-3.8-1.1-4.8-2.8c-1-1.8-0.9-3.9,0.2-5.6
		c3.2-4.9,6.1-9.9,8.8-14.6c0.7-1.3,1.9-2.2,3.3-2.6c1.4-0.4,2.9-0.2,4.2,0.5c2.6,1.5,3.6,4.8,2.1,7.5c-2.8,4.9-5.9,10-9.1,15.1
		C530.7,397.1,529,398.1,527.1,398.1L527.1,398.1z M135.7,377.7c-2.8,0-5.1-2.1-5.4-4.9c-0.1-1-0.1-1.9-0.1-2.9c0-0.6,0-1.1,0-1.8
		c0.9-5.7,3.6-10.9,7.7-14.9c2-2.2,5.4-2.4,7.6-0.5c2.3,1.9,2.6,5.3,0.7,7.6c-2.3,2.4-4.1,5.3-5.1,8.4c0,0.4,0,0.8,0,1.2
		c0,0.6,0,1.2,0.1,1.8c0.2,1.4-0.3,2.9-1.2,4s-2.2,1.8-3.7,2C136.1,377.7,135.9,377.7,135.7,377.7L135.7,377.7z M544.2,367.9
		L544.2,367.9c-1.9,0-3.6-1-4.6-2.6s-1.1-3.6-0.3-5.3c2.5-5.2,4.8-10.4,6.8-15.5l0,0c1.1-2.8,4.3-4.1,7.1-3s4.2,4.2,3.1,7
		c-2.1,5.4-4.5,10.8-7.1,16.3C548.2,366.7,546.3,367.9,544.2,367.9L544.2,367.9z M153.6,349.2c-2.1,0-4.1-1.2-5-3.2
		c-0.9-1.9-0.6-4.2,0.8-5.8c3.6-4.2,6.9-8.6,9.8-13.3c1.6-2.6,4.9-3.4,7.5-1.8s3.4,4.9,1.8,7.5c-3.2,5.2-6.8,10.1-10.8,14.7
		C156.7,348.5,155.2,349.2,153.6,349.2L153.6,349.2z M556.8,335.5c-1.7,0-3.3-0.8-4.4-2.2c-1-1.4-1.4-3.2-0.9-4.8
		c1.6-5.4,3-10.9,4-16.4l0,0c0.2-1.5,1.1-2.8,2.3-3.6c1.2-0.8,2.7-1.2,4.2-0.9s2.7,1.1,3.5,2.4c0.8,1.2,1.1,2.7,0.8,4.2
		c-1.1,5.8-2.6,11.6-4.2,17.4C561.4,333.9,559.2,335.5,556.8,335.5L556.8,335.5z M171.1,319.5c-1.8,0-3.4-0.8-4.4-2.3
		c-1-1.4-1.3-3.2-0.8-4.9c1.6-5.1,2.6-10.3,3-15.7c0.1-1.4,0.8-2.8,1.8-3.8c1.1-1,2.5-1.4,4-1.4c1.4,0.1,2.8,0.8,3.8,1.8
		c1,1.1,1.4,2.5,1.4,4c-0.4,6.2-1.6,12.4-3.5,18.3C175.6,318,173.5,319.5,171.1,319.5L171.1,319.5z M563.4,301.5c-0.2,0-0.4,0-0.5,0
		l0,0c-3-0.3-5.2-3-4.9-6c0.5-5.5,0.8-11.1,0.8-16.7l0,0c0-3,2.4-5.5,5.5-5.5c1.4,0,2.8,0.5,3.9,1.6c1,1,1.6,2.4,1.6,3.8
		c0,6.1-0.3,12-0.8,17.9l0,0C568.6,299.3,566.2,301.5,563.4,301.5L563.4,301.5z M174,285.1c-2.9,0-5.3-2.2-5.4-5.1
		c-0.2-4-0.6-8.1-0.9-12.2l-0.4-5c-0.2-1.5,0.3-2.9,1.2-4.1c0.9-1.1,2.3-1.8,3.8-1.9s2.9,0.4,4,1.4s1.8,2.4,1.8,3.8l0.4,5
		c0.3,4.2,0.7,8.4,0.9,12.4l0,0c0.1,1.4-0.4,2.9-1.4,4s-2.3,1.8-3.8,1.8L174,285.1z M563.4,266.8c-2.8,0-5.2-2.2-5.4-5
		c-0.4-4-0.9-8.2-1.5-12.2c-0.2-1.5-0.5-3-0.7-4.5c-0.2-1.4,0.1-2.9,0.9-4.1s2.1-2,3.5-2.2c3-0.5,5.8,1.5,6.3,4.5
		c0.3,1.6,0.5,3.1,0.8,4.7c0.7,4.3,1.2,8.7,1.6,12.9l0,0c0.1,1.4-0.3,2.9-1.2,4s-2.3,1.8-3.7,1.9
		C563.8,266.8,563.6,266.8,563.4,266.8L563.4,266.8z M171.8,250.4c-3,0-5.4-2.4-5.5-5.4v-1.3c0-5.6,0.3-11.2,0.9-16.7
		c0.2-1.4,0.9-2.8,2-3.7s2.6-1.3,4-1.2c3,0.3,5.2,3.1,4.8,6.1c-0.6,5.1-0.9,10.3-0.9,15.5v1.2c0,1.4-0.5,2.8-1.6,3.9
		C174.7,249.8,173.3,250.4,171.8,250.4L171.8,250.4z M557.6,232.6c-2.5,0-4.7-1.7-5.3-4.2c-1.4-5.6-3-11-4.7-16.2
		c-1-2.9,0.6-6,3.4-6.9c2.9-1,6,0.6,6.9,3.4c1.8,5.5,3.5,11.3,5,17.1c0.4,1.6,0,3.4-1,4.7C560.9,231.8,559.3,232.6,557.6,232.6
		L557.6,232.6z M175.8,216c-1.7,0-3.3-0.8-4.3-2.1s-1.4-3-1-4.7c1.4-5.9,3.2-11.6,5.3-17.2c0.5-1.4,1.5-2.5,2.9-3.2
		c1.3-0.6,2.9-0.7,4.2-0.2c1.3,0.5,2.5,1.6,3.1,2.9c0.6,1.4,0.6,2.9,0,4.3c-2,5.2-3.6,10.5-4.9,15.9
		C180.5,214.3,178.3,216,175.8,216L175.8,216z M546.6,199.7L546.6,199.7c-2.2,0-4.1-1.3-5-3.3c-2.2-5.2-4.8-10.2-7.4-15.1l0,0
		c-0.7-1.3-0.9-2.8-0.5-4.2s1.3-2.6,2.6-3.3s2.8-0.9,4.2-0.5c1.4,0.4,2.6,1.4,3.3,2.7c2.9,5.2,5.5,10.6,7.9,16
		c0.7,1.7,0.6,3.6-0.4,5.2C550.2,198.8,548.4,199.7,546.6,199.7L546.6,199.7z M188.1,183.7c-1.9,0-3.7-1-4.7-2.7
		c-1-1.6-1-3.7-0.1-5.4c2.8-5.3,5.9-10.4,9.3-15.4c0.8-1.2,2.1-2,3.5-2.3s2.9,0,4.1,0.9c1.2,0.8,2,2.1,2.3,3.5
		c0.3,1.4-0.1,2.9-0.9,4.1c-3.2,4.6-6.1,9.3-8.7,14.3C192,182.5,190.1,183.7,188.1,183.7L188.1,183.7z M529.8,169.4
		c-1.8,0-3.5-0.9-4.5-2.4c-3.2-4.6-6.6-9-10.3-13.3c-2-2.3-1.7-5.8,0.6-7.7c2.3-2,5.8-1.7,7.7,0.6c3.9,4.5,7.5,9.3,10.9,14.2
		c1.2,1.7,1.3,3.8,0.4,5.6C533.7,168.3,531.8,169.4,529.8,169.4L529.8,169.4z M207.8,155.1c-2.1,0-4.1-1.3-5-3.2
		c-0.9-2-0.5-4.2,0.9-5.9c3.9-4.5,8.1-8.8,12.5-12.9c2.2-2.1,5.7-1.9,7.7,0.3c2.1,2.2,1.9,5.7-0.3,7.7c-4.1,3.8-8,7.8-11.7,12
		C210.8,154.4,209.3,155.1,207.8,155.1L207.8,155.1z M507.2,143.1c-1.4,0-2.7-0.5-3.8-1.5c-4.1-3.8-8.3-7.5-12.8-10.9
		c-2.4-1.8-2.9-5.3-1-7.7c1.8-2.4,5.3-2.9,7.7-1c4.8,3.6,9.3,7.5,13.7,11.6c1.6,1.5,2.2,3.9,1.3,6
		C511.5,141.7,509.4,143.1,507.2,143.1L507.2,143.1z M233.2,131.6c-2.3,0-4.4-1.5-5.2-3.7c-0.7-2.2,0-4.7,1.9-6.1
		c4.7-3.5,9.7-6.9,14.8-10.1c1.2-0.8,2.7-1.1,4.2-0.7c1.4,0.3,2.7,1.2,3.4,2.5c0.8,1.3,1,2.8,0.6,4.2c-0.4,1.4-1.3,2.6-2.5,3.4
		c-4.8,3-9.5,6.1-13.9,9.5l0,0C235.5,131.2,234.4,131.6,233.2,131.6L233.2,131.6z M479.7,122.1L479.7,122.1c-1,0-2-0.3-2.9-0.8
		c-4.7-2.9-9.7-5.6-14.8-8.1c-1.3-0.6-2.4-1.7-2.9-3.1c-0.5-1.4-0.4-2.9,0.2-4.2c0.7-1.3,1.8-2.3,3.2-2.8c1.4-0.5,2.9-0.3,4.2,0.4
		c5.4,2.6,10.6,5.5,15.7,8.6l0,0c2.1,1.3,3.1,3.8,2.4,6.1C484.2,120.4,482.1,122,479.7,122.1L479.7,122.1z M262.7,113.4
		c-2.5,0-4.7-1.8-5.3-4.2c-0.6-2.5,0.6-5,2.9-6.2c5.2-2.6,10.7-5,16.3-7.2c1.4-0.6,2.9-0.5,4.2,0c1.3,0.6,2.4,1.7,2.9,3
		s0.5,2.9-0.1,4.2c-0.6,1.3-1.7,2.4-3.1,2.9c-5.2,2.1-10.5,4.4-15.4,6.9C264.4,113.2,263.6,113.4,262.7,113.4L262.7,113.4z
		 M448.6,106.7c-0.7,0-1.3-0.1-2-0.4c-5.2-2-10.5-3.8-16-5.4c-2.9-0.8-4.6-3.9-3.7-6.8c0.8-2.9,3.9-4.6,6.8-3.7
		c5.8,1.7,11.4,3.6,16.9,5.7l0,0c2.5,1,3.9,3.5,3.4,6.1C453.4,104.8,451.2,106.7,448.6,106.7L448.6,106.7z M295,100.7L295,100.7
		c-2.7,0-5-2-5.4-4.7c-0.4-2.7,1.2-5.2,3.8-6c5.6-1.7,11.4-3.2,17.2-4.5l0,0c1.4-0.3,2.9-0.1,4.2,0.7c1.2,0.8,2.1,2,2.4,3.5
		c0.3,1.4,0,2.9-0.8,4.2c-0.8,1.3-2.1,2.1-3.5,2.4c-5.5,1.2-11.1,2.6-16.4,4.2C296.1,100.6,295.5,100.7,295,100.7L295,100.7z
		 M415.3,96.9c-0.4,0-0.8,0-1.1-0.1c-5.4-1.2-11.1-2.2-16.7-3l0,0c-3-0.4-5.1-3.2-4.6-6.2c0.4-3,3.2-5.1,6.2-4.6
		c5.9,0.8,11.8,1.9,17.5,3.1c2.7,0.6,4.6,3.1,4.3,5.9C420.4,94.8,418.1,96.9,415.3,96.9L415.3,96.9z M328.9,93.3
		c-2.9,0-5.3-2.2-5.5-5.1c-0.2-2.9,1.9-5.4,4.7-5.8c5.8-0.8,11.8-1.4,17.7-1.8l0,0c1.5-0.2,3,0.2,4.2,1.2s1.9,2.4,2,3.9
		s-0.4,3-1.5,4.1c-1,1.1-2.5,1.7-4,1.7c-5.6,0.4-11.3,0.9-16.9,1.7C329.4,93.3,329.2,93.3,328.9,93.3L328.9,93.3z M380.9,92h-0.4
		c-2.6-0.2-5.2-0.4-7.8-0.5c-3.1-0.2-6.1-0.3-9.2-0.3c-3,0-5.5-2.5-5.4-5.5c0-3,2.5-5.5,5.5-5.4h0.1c3.2,0,6.4,0.1,9.6,0.3
		c2.7,0.1,5.4,0.3,8.1,0.5l0,0c3,0.1,5.4,2.7,5.2,5.7S383.9,92.2,380.9,92L380.9,92z"/>
</g>
</svg>
