<?xml version="1.0" encoding="utf-8"?>
<!-- Generator: Adobe Illustrator 25.4.2, SVG Export Plug-In . SVG Version: 6.00 Build 0)  -->
<svg version="1.1" id="Layer_1" xmlns="http://www.w3.org/2000/svg" xmlns:xlink="http://www.w3.org/1999/xlink" x="0px" y="0px"
	 viewBox="0 0 700 700" style="enable-background:new 0 0 700 700;" xml:space="preserve">
<style type="text/css">
	.st0{fill:#FF7F00;}
</style>
<g>
	<path class="st0" d="M573.1,280c0-57.9-22.2-110.8-58.6-150.5l0.1-0.1l-2.9-3c-1.1-1.1-2.2-2.2-3.2-3.2c-0.5-0.6-1.1-1.1-1.6-1.6
		c-2.2-2.2-4.4-4.3-6.6-6.3c-0.2-0.2-0.4-0.4-0.7-0.6C458.5,77.3,406,56.9,350,56.9s-108.5,20.4-149.6,57.7
		c-0.2,0.2-0.4,0.4-0.7,0.6c-2.3,2.1-4.5,4.2-6.6,6.3c-0.6,0.5-1.1,1.1-1.6,1.6c-1.1,1.1-2.2,2.1-3.2,3.2l-2.9,3l0.1,0.1
		c-36.3,39.7-58.6,92.6-58.6,150.5s22.2,110.8,58.6,150.5l-0.1,0.1l2.9,3c1.1,1.1,2.1,2.1,3.2,3.2c0.6,0.6,1.1,1.1,1.7,1.7
		c2.2,2.1,4.4,4.2,6.6,6.3c0.2,0.2,0.5,0.5,0.8,0.7c41.1,37.3,93.5,57.7,149.5,57.7s108.5-20.4,149.5-57.7c0.2-0.2,0.5-0.5,0.8-0.7
		c2.2-2,4.4-4.1,6.6-6.3c0.6-0.6,1.1-1.1,1.7-1.7c1.1-1.1,2.2-2.1,3.2-3.2l2.9-3l-0.1-0.1C550.9,390.8,573.1,337.9,573.1,280
		L573.1,280z M508.4,135.8c33.8,37.1,54.7,86.1,55.8,139.9H456.1c-0.3-34-4.2-66.1-11-94.8C468.3,169.8,489.7,154.7,508.4,135.8
		L508.4,135.8z M252.7,275.6c0.3-32.7,3.9-63.7,10.2-91.2C290,195.9,319.5,202,350,202s60-6.1,87.1-17.6
		c6.3,27.6,9.9,58.5,10.2,91.2H252.7z M447.3,284.4c-0.3,32.7-3.9,63.7-10.2,91.2C410,364.1,380.5,358,350,358s-60,6.1-87.1,17.6
		c-6.3-27.6-9.9-58.5-10.2-91.2H447.3z M502.4,129.5c-17.6,17.8-37.7,32.2-59.6,42.7c-12.8-48.6-34-86.2-59.5-103.9
		C429.6,75.5,471,97.6,502.4,129.5L502.4,129.5z M435,175.7c-26.5,11.4-55.2,17.5-85,17.5s-58.6-6-85-17.5
		c16.7-65.6,48.5-110.1,85-110.1S418.4,110.1,435,175.7z M316.6,68.2c-25.5,17.8-46.7,55.3-59.5,103.9c-21.9-10.5-42-24.9-59.6-42.7
		C229,97.6,270.4,75.5,316.6,68.2L316.6,68.2z M191.5,135.8c18.7,18.9,40.1,34.1,63.4,45.1c-6.8,28.7-10.7,60.8-11,94.8H135.7
		C136.8,221.9,157.7,172.9,191.5,135.8L191.5,135.8z M191.5,424.2c-33.8-37.1-54.7-86.1-55.8-139.9h108.2c0.3,34,4.2,66.1,11,94.8
		C231.7,390.2,210.2,405.3,191.5,424.2L191.5,424.2z M197.5,430.5c17.6-17.8,37.7-32.2,59.6-42.7c12.8,48.6,34,86.2,59.5,103.9
		C270.4,484.5,229,462.4,197.5,430.5L197.5,430.5z M264.9,384.3c26.5-11.4,55.2-17.5,85-17.5s58.6,6,85,17.5
		c-16.7,65.6-48.5,110.1-85,110.1S281.6,449.9,264.9,384.3z M383.4,491.8c25.5-17.8,46.7-55.3,59.5-104c21.9,10.5,42,24.9,59.6,42.7
		C471,462.4,429.6,484.5,383.4,491.8L383.4,491.8z M508.4,424.2c-18.7-18.9-40.1-34.1-63.4-45.1c6.8-28.7,10.7-60.8,11-94.8h108.2
		C563.2,338.2,542.2,387.1,508.4,424.2L508.4,424.2z"/>
</g>
</svg>
